<mxfile host="app.diagrams.net" agent="Mozilla/5.0 (Windows NT 10.0; Win64; x64) AppleWebKit/537.36 (KHTML, like Gecko) Chrome/136.0.0.0 Safari/537.36" version="26.2.14">
  <diagram name="Page-1" id="2YBvvXClWsGukQMizWep">
    <mxGraphModel dx="1226" dy="629" grid="1" gridSize="10" guides="1" tooltips="1" connect="1" arrows="1" fold="1" page="1" pageScale="1" pageWidth="850" pageHeight="1100" math="0" shadow="0">
      <root>
        <mxCell id="0" />
        <mxCell id="1" parent="0" />
        <mxCell id="fe7WjcVLrsXdpBChN67Y-5" value="&lt;font style=&quot;font-size: 10px;&quot;&gt;&lt;u&gt;:MyWaze UI&lt;/u&gt;&lt;/font&gt;&lt;div&gt;&lt;font style=&quot;font-size: 10px;&quot;&gt;&amp;lt;&amp;lt;interface&amp;gt;&amp;gt;&lt;/font&gt;&lt;/div&gt;" style="shape=umlLifeline;perimeter=lifelinePerimeter;whiteSpace=wrap;html=1;container=1;dropTarget=0;collapsible=0;recursiveResize=0;outlineConnect=0;portConstraint=eastwest;newEdgeStyle={&quot;edgeStyle&quot;:&quot;elbowEdgeStyle&quot;,&quot;elbow&quot;:&quot;vertical&quot;,&quot;curved&quot;:0,&quot;rounded&quot;:0};" vertex="1" parent="1">
          <mxGeometry x="205" y="34" width="100" height="500" as="geometry" />
        </mxCell>
        <mxCell id="fe7WjcVLrsXdpBChN67Y-6" value="" style="html=1;points=[[0,0,0,0,5],[0,1,0,0,-5],[1,0,0,0,5],[1,1,0,0,-5]];perimeter=orthogonalPerimeter;outlineConnect=0;targetShapes=umlLifeline;portConstraint=eastwest;newEdgeStyle={&quot;curved&quot;:0,&quot;rounded&quot;:0};" vertex="1" parent="fe7WjcVLrsXdpBChN67Y-5">
          <mxGeometry x="45" y="90" width="10" height="100" as="geometry" />
        </mxCell>
        <mxCell id="fe7WjcVLrsXdpBChN67Y-7" value="" style="html=1;points=[[0,0,0,0,5],[0,1,0,0,-5],[1,0,0,0,5],[1,1,0,0,-5]];perimeter=orthogonalPerimeter;outlineConnect=0;targetShapes=umlLifeline;portConstraint=eastwest;newEdgeStyle={&quot;curved&quot;:0,&quot;rounded&quot;:0};" vertex="1" parent="fe7WjcVLrsXdpBChN67Y-5">
          <mxGeometry x="-165" y="90" width="10" height="380" as="geometry" />
        </mxCell>
        <mxCell id="fe7WjcVLrsXdpBChN67Y-8" value="Request Stop" style="html=1;verticalAlign=bottom;endArrow=block;curved=0;rounded=0;" edge="1" parent="fe7WjcVLrsXdpBChN67Y-5">
          <mxGeometry width="80" relative="1" as="geometry">
            <mxPoint x="-155" y="110" as="sourcePoint" />
            <mxPoint x="45.000000000000114" y="110" as="targetPoint" />
          </mxGeometry>
        </mxCell>
        <mxCell id="fe7WjcVLrsXdpBChN67Y-9" value="displayMultiStopRoute()" style="html=1;verticalAlign=bottom;endArrow=block;endSize=8;curved=0;rounded=0;" edge="1" parent="fe7WjcVLrsXdpBChN67Y-5">
          <mxGeometry relative="1" as="geometry">
            <mxPoint x="45" y="180" as="sourcePoint" />
            <mxPoint x="-155" y="180" as="targetPoint" />
          </mxGeometry>
        </mxCell>
        <mxCell id="fe7WjcVLrsXdpBChN67Y-10" value="&lt;code data-end=&quot;893&quot; data-start=&quot;860&quot;&gt;queryStop(coords,filters)&lt;/code&gt;" style="html=1;verticalAlign=bottom;endArrow=block;curved=0;rounded=0;" edge="1" parent="fe7WjcVLrsXdpBChN67Y-5">
          <mxGeometry width="80" relative="1" as="geometry">
            <mxPoint x="55" y="120" as="sourcePoint" />
            <mxPoint x="255" y="120" as="targetPoint" />
          </mxGeometry>
        </mxCell>
        <mxCell id="fe7WjcVLrsXdpBChN67Y-11" value="returnStop()" style="html=1;verticalAlign=bottom;endArrow=open;dashed=1;endSize=8;curved=0;rounded=0;" edge="1" parent="fe7WjcVLrsXdpBChN67Y-5">
          <mxGeometry relative="1" as="geometry">
            <mxPoint x="255" y="150" as="sourcePoint" />
            <mxPoint x="55" y="150" as="targetPoint" />
          </mxGeometry>
        </mxCell>
        <mxCell id="fe7WjcVLrsXdpBChN67Y-12" value="addStop(selectedStop)" style="html=1;verticalAlign=bottom;endArrow=block;curved=0;rounded=0;" edge="1" parent="fe7WjcVLrsXdpBChN67Y-5">
          <mxGeometry width="80" relative="1" as="geometry">
            <mxPoint x="-155" y="260" as="sourcePoint" />
            <mxPoint x="45.000000000000114" y="260" as="targetPoint" />
          </mxGeometry>
        </mxCell>
        <mxCell id="fe7WjcVLrsXdpBChN67Y-13" value="showRoute(updatedRoute)" style="html=1;verticalAlign=bottom;endArrow=block;dashed=1;endSize=8;curved=0;rounded=0;" edge="1" parent="fe7WjcVLrsXdpBChN67Y-5">
          <mxGeometry relative="1" as="geometry">
            <mxPoint x="45" y="310" as="sourcePoint" />
            <mxPoint x="-155" y="310" as="targetPoint" />
            <mxPoint as="offset" />
          </mxGeometry>
        </mxCell>
        <mxCell id="fe7WjcVLrsXdpBChN67Y-14" value="" style="html=1;points=[[0,0,0,0,5],[0,1,0,0,-5],[1,0,0,0,5],[1,1,0,0,-5]];perimeter=orthogonalPerimeter;outlineConnect=0;targetShapes=umlLifeline;portConstraint=eastwest;newEdgeStyle={&quot;curved&quot;:0,&quot;rounded&quot;:0};" vertex="1" parent="fe7WjcVLrsXdpBChN67Y-5">
          <mxGeometry x="45" y="240" width="10" height="80" as="geometry" />
        </mxCell>
        <mxCell id="fe7WjcVLrsXdpBChN67Y-15" value="updatedRoute" style="html=1;verticalAlign=bottom;endArrow=open;dashed=1;endSize=8;curved=0;rounded=0;" edge="1" parent="fe7WjcVLrsXdpBChN67Y-5">
          <mxGeometry relative="1" as="geometry">
            <mxPoint x="435" y="290" as="sourcePoint" />
            <mxPoint x="55" y="290" as="targetPoint" />
          </mxGeometry>
        </mxCell>
        <mxCell id="fe7WjcVLrsXdpBChN67Y-16" value="&lt;font style=&quot;font-size: 10px;&quot;&gt;&lt;u&gt;:RouteService&lt;/u&gt;&lt;/font&gt;&lt;div&gt;&lt;span style=&quot;font-size: 10px;&quot;&gt;&amp;lt;&amp;lt;control&amp;gt;&amp;gt;&lt;/span&gt;&lt;/div&gt;" style="shape=umlLifeline;perimeter=lifelinePerimeter;whiteSpace=wrap;html=1;container=1;dropTarget=0;collapsible=0;recursiveResize=0;outlineConnect=0;portConstraint=eastwest;newEdgeStyle={&quot;edgeStyle&quot;:&quot;elbowEdgeStyle&quot;,&quot;elbow&quot;:&quot;vertical&quot;,&quot;curved&quot;:0,&quot;rounded&quot;:0};" vertex="1" parent="1">
          <mxGeometry x="415" y="34" width="100" height="500" as="geometry" />
        </mxCell>
        <mxCell id="fe7WjcVLrsXdpBChN67Y-17" value="" style="html=1;points=[[0,0,0,0,5],[0,1,0,0,-5],[1,0,0,0,5],[1,1,0,0,-5]];perimeter=orthogonalPerimeter;outlineConnect=0;targetShapes=umlLifeline;portConstraint=eastwest;newEdgeStyle={&quot;curved&quot;:0,&quot;rounded&quot;:0};" vertex="1" parent="fe7WjcVLrsXdpBChN67Y-16">
          <mxGeometry x="45" y="110" width="10" height="50" as="geometry" />
        </mxCell>
        <mxCell id="fe7WjcVLrsXdpBChN67Y-18" value="" style="endArrow=none;dashed=1;html=1;rounded=0;" edge="1" parent="1" source="fe7WjcVLrsXdpBChN67Y-7">
          <mxGeometry width="50" height="50" relative="1" as="geometry">
            <mxPoint x="45" y="334" as="sourcePoint" />
            <mxPoint x="45" y="84" as="targetPoint" />
          </mxGeometry>
        </mxCell>
        <mxCell id="fe7WjcVLrsXdpBChN67Y-19" value="User" style="shape=umlActor;verticalLabelPosition=bottom;verticalAlign=top;html=1;outlineConnect=0;" vertex="1" parent="1">
          <mxGeometry x="35" y="24" width="20" height="40" as="geometry" />
        </mxCell>
        <mxCell id="fe7WjcVLrsXdpBChN67Y-20" value="" style="endArrow=none;dashed=1;html=1;rounded=0;" edge="1" parent="1" target="fe7WjcVLrsXdpBChN67Y-7">
          <mxGeometry width="50" height="50" relative="1" as="geometry">
            <mxPoint x="45" y="534" as="sourcePoint" />
            <mxPoint x="45" y="84" as="targetPoint" />
          </mxGeometry>
        </mxCell>
        <mxCell id="fe7WjcVLrsXdpBChN67Y-21" value="route:Route" style="shape=umlLifeline;perimeter=lifelinePerimeter;whiteSpace=wrap;html=1;container=1;dropTarget=0;collapsible=0;recursiveResize=0;outlineConnect=0;portConstraint=eastwest;newEdgeStyle={&quot;curved&quot;:0,&quot;rounded&quot;:0};" vertex="1" parent="1">
          <mxGeometry x="595" y="34" width="100" height="500" as="geometry" />
        </mxCell>
        <mxCell id="fe7WjcVLrsXdpBChN67Y-22" value="" style="html=1;points=[[0,0,0,0,5],[0,1,0,0,-5],[1,0,0,0,5],[1,1,0,0,-5]];perimeter=orthogonalPerimeter;outlineConnect=0;targetShapes=umlLifeline;portConstraint=eastwest;newEdgeStyle={&quot;curved&quot;:0,&quot;rounded&quot;:0};" vertex="1" parent="fe7WjcVLrsXdpBChN67Y-21">
          <mxGeometry x="45" y="255" width="10" height="50" as="geometry" />
        </mxCell>
        <mxCell id="fe7WjcVLrsXdpBChN67Y-23" value="loop" style="shape=umlFrame;whiteSpace=wrap;html=1;pointerEvents=0;width=60;height=15;" vertex="1" parent="1">
          <mxGeometry x="25" y="104" width="460" height="140" as="geometry" />
        </mxCell>
        <mxCell id="fe7WjcVLrsXdpBChN67Y-24" value="[moreStopsToProcess = true]" style="text;html=1;align=center;verticalAlign=middle;resizable=0;points=[];autosize=1;strokeColor=none;fillColor=none;fontSize=11;" vertex="1" parent="1">
          <mxGeometry x="77" y="102" width="170" height="30" as="geometry" />
        </mxCell>
        <mxCell id="fe7WjcVLrsXdpBChN67Y-25" value="alt" style="shape=umlFrame;whiteSpace=wrap;html=1;pointerEvents=0;width=60;height=15;" vertex="1" parent="1">
          <mxGeometry x="25" y="254" width="660" height="220" as="geometry" />
        </mxCell>
        <mxCell id="fe7WjcVLrsXdpBChN67Y-26" value="updateRoute(selectedStop)" style="html=1;verticalAlign=bottom;endArrow=block;curved=0;rounded=0;" edge="1" parent="1">
          <mxGeometry x="-0.0263" width="80" relative="1" as="geometry">
            <mxPoint x="260" y="304" as="sourcePoint" />
            <mxPoint x="640" y="304" as="targetPoint" />
            <mxPoint as="offset" />
          </mxGeometry>
        </mxCell>
        <mxCell id="fe7WjcVLrsXdpBChN67Y-27" value="" style="endArrow=none;dashed=1;html=1;dashPattern=1 3;strokeWidth=2;rounded=0;exitX=-0.005;exitY=0.479;exitDx=0;exitDy=0;exitPerimeter=0;entryX=1.001;entryY=0.474;entryDx=0;entryDy=0;entryPerimeter=0;" edge="1" parent="1">
          <mxGeometry width="50" height="50" relative="1" as="geometry">
            <mxPoint x="21.040000000000077" y="385.10000000000014" as="sourcePoint" />
            <mxPoint x="685" y="384" as="targetPoint" />
          </mxGeometry>
        </mxCell>
        <mxCell id="fe7WjcVLrsXdpBChN67Y-28" value="" style="html=1;points=[[0,0,0,0,5],[0,1,0,0,-5],[1,0,0,0,5],[1,1,0,0,-5]];perimeter=orthogonalPerimeter;outlineConnect=0;targetShapes=umlLifeline;portConstraint=eastwest;newEdgeStyle={&quot;curved&quot;:0,&quot;rounded&quot;:0};" vertex="1" parent="1">
          <mxGeometry x="250" y="424" width="10" height="20" as="geometry" />
        </mxCell>
        <mxCell id="fe7WjcVLrsXdpBChN67Y-29" value="cancelDefineRoute()" style="html=1;verticalAlign=bottom;endArrow=block;curved=0;rounded=0;" edge="1" parent="1">
          <mxGeometry width="80" relative="1" as="geometry">
            <mxPoint x="50" y="433.71000000000004" as="sourcePoint" />
            <mxPoint x="250.0000000000001" y="433.71000000000004" as="targetPoint" />
          </mxGeometry>
        </mxCell>
        <mxCell id="fe7WjcVLrsXdpBChN67Y-30" value="[addOneStopOnly]" style="text;html=1;align=center;verticalAlign=middle;resizable=0;points=[];autosize=1;strokeColor=none;fillColor=none;fontSize=11;" vertex="1" parent="1">
          <mxGeometry x="82" y="249" width="110" height="30" as="geometry" />
        </mxCell>
        <mxCell id="fe7WjcVLrsXdpBChN67Y-31" value="[cancel]" style="text;html=1;align=center;verticalAlign=middle;resizable=0;points=[];autosize=1;strokeColor=none;fillColor=none;fontSize=11;" vertex="1" parent="1">
          <mxGeometry x="60" y="379" width="60" height="30" as="geometry" />
        </mxCell>
      </root>
    </mxGraphModel>
  </diagram>
</mxfile>
